<svg width="60" height="60" viewBox="0 0 60 60" fill="none" xmlns="http://www.w3.org/2000/svg">
<path d="M25.0758 22.4241C24.3436 21.6919 23.1564 21.6919 22.4242 22.4241C21.6919 23.1564 21.6919 24.3436 22.4242 25.0758L27.3483 30L22.4242 34.9243C21.692 35.6563 21.692 36.8435 22.4242 37.5758C23.1564 38.308 24.3436 38.308 25.0758 37.5758L30.0001 32.6518L34.9241 37.5758C35.6563 38.308 36.8436 38.308 37.5758 37.5758C38.3081 36.8435 38.3081 35.6563 37.5758 34.924L32.6516 30L37.5758 25.0758C38.3081 24.3436 38.3081 23.1564 37.5758 22.4242C36.8436 21.692 35.6563 21.692 34.9241 22.4242L30.0001 27.3483L25.0758 22.4241Z" fill="#4CBF00"/>
<path fill-rule="evenodd" clip-rule="evenodd" d="M30 3.125C15.1574 3.125 3.125 15.1574 3.125 30C3.125 44.8427 15.1574 56.875 30 56.875C44.8427 56.875 56.875 44.8427 56.875 30C56.875 15.1574 44.8427 3.125 30 3.125ZM6.875 30C6.875 17.2284 17.2284 6.875 30 6.875C42.7715 6.875 53.125 17.2284 53.125 30C53.125 42.7715 42.7715 53.125 30 53.125C17.2284 53.125 6.875 42.7715 6.875 30Z" fill="#4CBF00"/>
</svg>
