<svg width="86" height="86" viewBox="0 0 86 86" fill="none" xmlns="http://www.w3.org/2000/svg">
<g clip-path="url(#clip0_530_43)">
<path d="M66.5811 0H19.4189C8.69412 0 0 8.73438 0 19.5088V66.4912C0 77.2656 8.69412 86 19.4189 86H66.5811C77.3059 86 86 77.2656 86 66.4912V19.5088C86 8.73438 77.3059 0 66.5811 0Z" fill="#689945"/>
<path d="M54.3784 25.0336H60.4454L47.191 40.2545L62.7835 60.9648H50.5739L41.0114 48.405L30.0682 60.9648H23.9979L38.1744 44.6858L23.2168 25.0336H35.7355L44.3792 36.5151L54.3784 25.0336ZM52.2485 57.3165H55.6112L33.9097 28.4912H30.3017L52.2485 57.3165Z" fill="white"/>
</g>
<defs>
<clipPath id="clip0_530_43">
<rect width="86" height="86" fill="white"/>
</clipPath>
</defs>
</svg>
