<svg width="95" height="95" viewBox="0 0 95 95" fill="none" xmlns="http://www.w3.org/2000/svg">
<g clip-path="url(#clip0_530_38)">
<path d="M95 47.5C95 21.2665 73.7335 0 47.5 0C21.2665 0 0 21.2665 0 47.5C0 73.7335 21.2665 95 47.5 95C73.7335 95 95 73.7335 95 47.5Z" fill="url(#paint0_linear_530_38)"/>
<path fill-rule="evenodd" clip-rule="evenodd" d="M9.27734 47.5946C9.27734 26.4321 26.3818 9.27734 47.4783 9.27734C68.5787 9.27734 85.6831 26.4321 85.6813 47.5928C85.6813 55.0881 83.5347 62.0801 79.8262 67.9844C78.8038 69.6112 77.6647 71.1552 76.4167 72.6067L47.5291 43.6339L22.6883 68.546L18.587 72.6594C17.3352 71.2116 16.1924 69.6697 15.1699 68.0447C11.437 62.1291 9.27734 55.1145 9.27734 47.5946ZM75.4467 62.525L75.7965 61.8237L75.7983 61.8255C77.9898 57.4407 79.1478 52.5187 79.1478 47.5946C79.1478 30.0818 64.9418 15.8338 47.4801 15.8338C30.0187 15.8338 15.8146 30.0818 15.8146 47.5946C15.8146 52.545 16.9837 57.4878 19.1959 61.8897L19.5475 62.5872L47.5291 34.523L75.4467 62.525ZM47.4798 85.9082C56.9905 85.9082 65.6912 82.4225 72.3789 76.6541V76.6522L47.5306 51.7307L22.6352 76.6975C29.3134 82.4414 37.969 85.9082 47.4798 85.9082Z" fill="white"/>
</g>
<defs>
<linearGradient id="paint0_linear_530_38" x1="47.5" y1="-1.10595e-08" x2="47.6401" y2="95" gradientUnits="userSpaceOnUse">
<stop stop-color="#169E00"/>
<stop offset="0.49" stop-color="#00C537"/>
<stop offset="1" stop-color="#00B1C9"/>
</linearGradient>
<clipPath id="clip0_530_38">
<rect width="95" height="95" fill="white"/>
</clipPath>
</defs>
</svg>
